<svg id="Group_293" data-name="Group 293" xmlns="http://www.w3.org/2000/svg" width="355.29" height="437.288" viewBox="0 0 355.29 437.288">
  <g id="Group_237" data-name="Group 237" transform="translate(158.346 191.431)">
    <path id="Path_531" data-name="Path 531" d="M2257.122,462.319s5.152,102.474,4.635,100.927,121.017-4.631,121.017-4.631-20.087-128.225-21.631-128.225S2257.122,462.319,2257.122,462.319Z" transform="translate(-2257.122 -430.39)" fill="#fff"/>
  </g>
  <g id="Group_241" data-name="Group 241" transform="translate(0 307.004)">
    <g id="Group_238" data-name="Group 238">
      <path id="Path_532" data-name="Path 532" d="M2399.931,581.918l-261.136.687-89.006,120.611V712.2l306.74-3.424,48.55-119.241Z" transform="translate(-2049.789 -581.918)" fill="#f6bd75"/>
    </g>
    <g id="Group_239" data-name="Group 239">
      <path id="Path_533" data-name="Path 533" d="M2399.931,581.918h-.087l-48.709,122.047H2049.789V712.2l306.74-3.424,48.55-119.241Z" transform="translate(-2049.789 -581.918)" fill="#dfac6a"/>
    </g>
    <g id="Group_240" data-name="Group 240" transform="translate(247.298 65.978)">
      <path id="Path_534" data-name="Path 534" d="M2431.806,685.425c-5.623,1.155-11.209,4.715-12.656,8.579-.929,2.744.711,4.919,5.287,5.79a34.565,34.565,0,0,0,6.377.551,74.025,74.025,0,0,0,10.738-.958l.686-1.582a73.744,73.744,0,0,1-10.886.993,33.03,33.03,0,0,1-6.136-.527c-4.379-.888-5.17-2.679-4.6-4.267.76-2.491,5.786-6.092,10.959-7.064a31.63,31.63,0,0,1,6.3-.617,40.833,40.833,0,0,1,8.883,1.054l.671-1.547a41.85,41.85,0,0,0-9.02-1.055A33.338,33.338,0,0,0,2431.806,685.425Zm-56.253,8.773a10.363,10.363,0,0,1,2.012-3.327c8.177-9.773,26.273-13.551,36.607-15.768a253.215,253.215,0,0,1,38.206-5.034c-.145-.5-.312-1-.493-1.481a252.347,252.347,0,0,0-37.513,5.007c-10.339,2.313-28.628,5.779-37.856,16.548a12.711,12.711,0,0,0-2.428,4.055c-2.363,7.307,5.783,11.192,10.1,13.177,14.2,6.223,31.525,7.8,48.333,9.065.5-.49.979-.985,1.471-1.481-17.062-1.27-34.589-2.8-48.805-9.035C2380.8,704.089,2373.423,699.839,2375.553,694.2Zm52.4-3.018c-9.755,3.105.725,5.738,7.972,3.851l.458-.125C2447.166,691.8,2435.313,688.842,2427.956,691.18Zm-25.558-4.8c-5.287,1.773-10.57,4.313-12.857,8.638a6.936,6.936,0,0,0-.437,1.017c-1.27,3.837,1.436,6.1,4.587,7.608a44.7,44.7,0,0,0,8.971,2.754,132.822,132.822,0,0,0,30.019,3.178c1.488,0,2.99-.045,4.485-.091l.67-1.533c-1.546.049-3.092.084-4.621.084a131.363,131.363,0,0,1-29.735-3.151,43.879,43.879,0,0,1-8.76-2.681c-3.091-1.451-5.114-3.556-4.153-6.168a5.038,5.038,0,0,1,.323-.739c1.605-3.244,6.327-5.776,11.5-7.466a105.116,105.116,0,0,1,13.45-3.181,190.052,190.052,0,0,1,33.44-3.063l.67-1.548a191.955,191.955,0,0,0-33.873,3.094A106.983,106.983,0,0,0,2402.4,686.378Z" transform="translate(-2373.668 -668.588)" fill="#dfac6a"/>
    </g>
  </g>
  <g id="Group_242" data-name="Group 242" transform="translate(90.396 395.317)">
    <path id="Path_535" data-name="Path 535" d="M2267.811,724.19h-99.642l23.174-26.262H2282.1Z" transform="translate(-2168.169 -697.928)" fill="#dfac6a"/>
  </g>
  <g id="Group_243" data-name="Group 243" transform="translate(284.376 315.887)">
    <path id="Path_536" data-name="Path 536" d="M2458.682,622.93c-2.883,13.951-13.183,23.609-23,21.583s-15.434-14.99-12.551-28.941,13.183-23.6,23-21.571S2461.569,608.981,2458.682,622.93Z" transform="translate(-2422.375 -593.73)"/>
  </g>
  <g id="Group_246" data-name="Group 246" transform="translate(86.912 328.635)">
    <g id="Group_244" data-name="Group 244">
      <path id="Path_537" data-name="Path 537" d="M2358.084,610.332l-28.58,54.838H2163.429l40.555-53.295Z" transform="translate(-2163.429 -610.332)" fill="#626d66"/>
    </g>
    <g id="Group_245" data-name="Group 245">
      <path id="Path_538" data-name="Path 538" d="M2321.782,657.7l-150.912-2.546-7.441,10.012H2329.5l28.58-54.838Z" transform="translate(-2163.429 -610.332)" fill="#829087"/>
    </g>
  </g>
  <g id="Group_247" data-name="Group 247" transform="translate(89.874 389.656)">
    <path id="Path_539" data-name="Path 539" d="M2267.132,716.752h-99.646l23.177-26.262h90.759Z" transform="translate(-2167.485 -690.491)" fill="#313133"/>
  </g>
  <g id="Group_281" data-name="Group 281" transform="translate(99.479 0)">
    <g id="Group_268" data-name="Group 268">
      <g id="Group_256" data-name="Group 256" transform="translate(110.229)">
        <g id="Group_249" data-name="Group 249">
          <g id="Group_248" data-name="Group 248">
            <path id="Path_540" data-name="Path 540" d="M2346.317,261.892c-11.937-9.953-23.185-22.949-21.5-39.833,1.374-13.738,10.661-28.19,21.932-35.594,12.222-8.033,27.7-9.615,40.646-2.569,15.085,8.2,20.507,24.195,20.17,40.633-.225,10.949-6.848,21.935-13.336,30.393-6.009,7.831-14.931,12.756-23.043,17.953Z" transform="translate(-2324.65 -179.419)" fill="#732e1e"/>
          </g>
        </g>
        <g id="Group_251" data-name="Group 251" transform="translate(21.141 21.075)">
          <g id="Group_250" data-name="Group 250">
            <path id="Path_541" data-name="Path 541" d="M2362.6,260.4c-11.136-12.274-14.991-32.6-1.971-45.008h0a29.46,29.46,0,0,1,5.43-4.049h0c8.114-4.65,24.115-7.042,31.928,1.237h0a13.435,13.435,0,0,1,1.769,2.453h0a13.123,13.123,0,0,1,1.255,3.187h0a31.5,31.5,0,0,1,3.653,1.462h0a22.815,22.815,0,0,1,7.2,5.259h0c4.642,5.106,6.56,11.993,7,19.283h0l-2.42.153c-.417-6.972-2.242-13.246-6.355-17.754h0a20.277,20.277,0,0,0-6.432-4.7h0c-.747-.349-1.5-.662-2.262-.951h0c.188,5.586-3.008,11.23-7.238,15.233h0c-3.351,3.171-7.427,5.429-11.416,5.9h0c-3.723.432-6.418-.317-8.052-2.1h0c-4.073-4.991,0-13.5,4.444-17.9h0c.277-.26.558-.5.84-.735h0c5.482-4.418,12.014-5.288,18.275-3.911h0a10.262,10.262,0,0,0-.586-1.2h0a11,11,0,0,0-1.446-2h0c-6.1-6.981-21.68-5.147-28.948-.779h0a27.439,27.439,0,0,0-4.981,3.719h0c-11.719,11.131-8.445,29.931,2.1,41.522h0c6.938,7.589,16.742,11.858,27.205,8.757h0l.681,2.368c-11.5,3.419-22.308-1.344-29.666-9.445Zm13.44-28.809c-.933,2.884-.811,5.445.419,6.726h0c.9.993,2.665,1.706,6.006,1.331h0c3.271-.366,7-2.355,10.04-5.254h0c4.17-3.948,6.949-9.354,6.418-14.222h0c-6.082-1.659-12.3-1.022-17.458,3.138h0c-.231.184-.465.387-.689.6h0a.33.33,0,0,1-.029.026h0a19.415,19.415,0,0,0-4.708,7.653Zm42.82,12.638v-.005h0l0,0,0,0Z" transform="translate(-2352.422 -207.103)" fill="#aa6f4d"/>
          </g>
        </g>
        <g id="Group_255" data-name="Group 255" transform="translate(21.497 33.185)">
          <g id="Group_252" data-name="Group 252" transform="translate(0 18.287)">
            <path id="Path_542" data-name="Path 542" d="M2366.211,263.324a44.592,44.592,0,0,1-4.533-3.511h0a39.251,39.251,0,0,1-8.788-11.678h0l2.2-1.1a36.426,36.426,0,0,0,8.177,10.919h0a43.459,43.459,0,0,0,4.264,3.3h0c4.892,3.355,10.154,6.3,15.951,6.869h0l-.087,2.529c-6.5-.65-12.166-3.887-17.183-7.327Z" transform="translate(-2352.889 -247.034)" fill="#aa6f4d"/>
          </g>
          <g id="Group_254" data-name="Group 254" transform="translate(20.708)">
            <g id="Group_253" data-name="Group 253">
              <path id="Path_543" data-name="Path 543" d="M2400.692,252.943c-.382.361-.766.718-1.169,1.082h0c-4.909,4.378-12,9.878-19.431,8.7h0l0,0,.388-2.434c5.885,1.073,12.7-3.781,17.437-8.113h0q.572-.525,1.123-1.046h0c4.989-4.743,7.851-9.044,9.606-15.979h0c1.02-4.135.718-7.28-.305-11.549h0l2.345-.593c1.079,4.418,1.453,8.183.3,12.747h0a32.857,32.857,0,0,1-10.2,17.086h0l-.1.1Z" transform="translate(-2380.092 -223.011)" fill="#aa6f4d"/>
            </g>
          </g>
        </g>
      </g>
      <g id="Group_258" data-name="Group 258" transform="translate(12.525 91.008)">
        <g id="Group_257" data-name="Group 257">
          <path id="Path_544" data-name="Path 544" d="M2200.069,340.063s-29.417,91.906,76.176,100.263c0,0,87.3,4.434,75.418-82.528l-24.323-51.157-83.151-7.672Z" transform="translate(-2196.303 -298.969)" fill="#f9d5ba"/>
        </g>
      </g>
      <g id="Group_259" data-name="Group 259" transform="translate(7.826 31.05)">
        <path id="Path_545" data-name="Path 545" d="M2317.534,292.489s-1.013,15.814-18.186,22.027c0,0,7.071-14.685,6.061-26.545,0,0-23.234,24.285-62.124,23.719s-46.973,27.111-46.973,27.111l-4.044,11.541s-14.141-72.678,30.307-112.777,107.081,1.834,107.081,1.834,57.582,12.584,38.894,109.912C2368.549,349.312,2306.925,374.947,2317.534,292.489Z" transform="translate(-2190.129 -220.207)" fill="#732e1e"/>
      </g>
      <g id="Group_260" data-name="Group 260" transform="translate(8.85 38.777)">
        <path id="Path_546" data-name="Path 546" d="M2320.114,236.761c-.739,12.8-4.645,26.421-8.607,37.174-3.132,8.522-6.251,15.2-7.788,18.351,1.318-1.171,2.012-1.891,2.012-1.891a29.019,29.019,0,0,1,.08,2.907c3.5-7.205,14.2-30.628,16.35-53.2.42,4.456.712,9.556.708,15.112,0,14.651-2.026,32.453-9.082,49.909l.443.224a26.318,26.318,0,0,0,3.529-9.63q-.475,3.86-.722,7.4c6.273-16.888,8.105-33.846,8.105-47.907,0-6.123-.351-11.677-.83-16.467C2323.086,238.133,2321.678,237.462,2320.114,236.761Zm45.193,93.62c0-.039,0-.085,0-.123-1.054-28.661-4.815-60.917-23.108-82.788a55.8,55.8,0,0,0-6.685-3.6c19.229,17.534,24.148,47.742,26.494,73.824,1.21,13.438,1.041,24.7-3.511,37.31.864-.079,1.713-.175,2.54-.286,1.221-.167,3.393-11.29,3.663-12.825A54.615,54.615,0,0,0,2365.307,330.381Zm-40.579-91.427c.06.091.118.172.184.267,6.033,8.947,18.219,31.521,18.219,68.391a206.57,206.57,0,0,1-5.723,45.9q1.071.435,2.168.792a209.465,209.465,0,0,0,5.829-46.7c0-33.432-9.849-55.423-16.434-66.384C2328.088,240.72,2326.642,239.92,2324.728,238.954Zm-40.878-4.963A99.987,99.987,0,0,1,2299.6,232.9c3.889,0,7.784.142,11.677.309-2.768-.99-5.776-1.951-8.985-2.817-.9-.015-1.79-.033-2.692-.033a102.786,102.786,0,0,0-16.073,1.114c-49.416,7.883-82.515,58.663-92.056,111.48l1.813.411.493-.316C2203.283,291.1,2235.877,241.568,2283.849,233.991Zm35.251,3.731c.225-.4.44-.77.655-1.122q-1.046-.464-2.174-.94c-1.062,1.821-2.13,3.968-2.322,4.236a162.491,162.491,0,0,1-26.176,31.159c-13.047,11.86-27.719,16.83-43.188,24.283a171.383,171.383,0,0,0-21.173,11.905,103.58,103.58,0,0,0-18.026,14.907C2220.887,296,2255.8,245.481,2317.5,235.626c-1.387-.586-2.872-1.178-4.444-1.767-77.954,15.041-112.174,93.709-115.66,102.172-.069.158-.132.317-.194.477s-.1.255-.108.26l1.187.57a38.735,38.735,0,0,1,6.046-8.626c5.846-7.845,14.4-14.511,21.565-19.3a169.389,169.389,0,0,1,20.9-11.743c15.3-7.393,30.238-12.415,43.722-24.645a165.19,165.19,0,0,0,26.574-31.628C2317.446,240.85,2318.216,239.3,2319.1,237.722Z" transform="translate(-2191.475 -230.357)" fill="#aa6f4d"/>
      </g>
      <g id="Group_262" data-name="Group 262" transform="translate(0 146.963)">
        <g id="Group_261" data-name="Group 261">
          <path id="Path_547" data-name="Path 547" d="M2214.492,398.589c-2.855,11.289-12.755,18.179-22.1,15.388s-14.619-14.2-11.764-25.494,12.757-18.182,22.11-15.387S2217.347,387.3,2214.492,398.589Z" transform="translate(-2179.849 -372.473)" fill="#f9d5ba"/>
        </g>
      </g>
      <g id="Group_267" data-name="Group 267" transform="translate(157.084 155.199)">
        <g id="Group_264" data-name="Group 264">
          <g id="Group_263" data-name="Group 263">
            <path id="Path_548" data-name="Path 548" d="M2420.846,409.411c-2.859,11.287-12.756,18.181-22.105,15.388s-14.62-14.2-11.765-25.492,12.76-18.184,22.11-15.393S2423.7,398.118,2420.846,409.411Z" transform="translate(-2386.2 -383.293)" fill="#f9d5ba"/>
          </g>
        </g>
        <g id="Group_266" data-name="Group 266" transform="translate(15.68 10.99)">
          <g id="Group_265" data-name="Group 265">
            <path id="Path_549" data-name="Path 549" d="M2406.8,418.45c2.4-1.78,5.718-2.805,8.184-4.663-2.55-.993-5.179-2.377-7.712-3.145a47.174,47.174,0,0,1,7.979-3.5c-.683-3.693-4.5-6.885-7.767-6.975.462-1.34,3.317-2.645,5.066-2.41C2428,399.822,2418.69,427.187,2406.8,418.45Z" transform="translate(-2406.797 -397.73)" fill="#c5a27d"/>
          </g>
        </g>
      </g>
    </g>
    <g id="Group_280" data-name="Group 280" transform="translate(27.108 155.691)">
      <g id="Group_269" data-name="Group 269" transform="translate(49.871 32.948)">
        <path id="Path_550" data-name="Path 550" d="M2280.971,428.761l.059-1.54,13.124.485-.059,1.548-13.124-.493Z" transform="translate(-2280.971 -427.22)" fill="#69442f"/>
      </g>
      <g id="Group_271" data-name="Group 271" transform="translate(51.585 7.337)">
        <g id="Group_270" data-name="Group 270">
          <path id="Path_551" data-name="Path 551" d="M2286.188,400.829a5.322,5.322,0,0,1,4.052-6.331,5.861,5.861,0,0,1,.722-.08,4.888,4.888,0,0,0-3.687-.739c-2.852.608-4.6,3.756-3.9,7.022s3.58,5.425,6.431,4.81a4.626,4.626,0,0,0,1.253-.483A5.33,5.33,0,0,1,2286.188,400.829Z" transform="translate(-2283.222 -393.577)" fill="#c5a27d"/>
        </g>
      </g>
      <g id="Group_273" data-name="Group 273" transform="translate(83.67 16.564)">
        <g id="Group_272" data-name="Group 272">
          <path id="Path_552" data-name="Path 552" d="M2358.728,425.06a16.777,16.777,0,1,1-14-19.161A16.779,16.779,0,0,1,2358.728,425.06Z" transform="translate(-2325.37 -405.698)" fill="#f6b8a4"/>
        </g>
      </g>
      <g id="Group_275" data-name="Group 275" transform="translate(0 15.746)">
        <g id="Group_274" data-name="Group 274">
          <path id="Path_553" data-name="Path 553" d="M2248.819,423.986a16.779,16.779,0,1,1-14-19.161A16.779,16.779,0,0,1,2248.819,423.986Z" transform="translate(-2215.458 -404.623)" fill="#f6b8a4"/>
        </g>
      </g>
      <g id="Group_277" data-name="Group 277" transform="translate(75.7 1.274)">
        <g id="Group_276" data-name="Group 276">
          <path id="Path_554" data-name="Path 554" d="M2325.755,394.525c-.232,4.748-2.848,8.456-5.843,8.279s-5.224-4.162-5-8.905,2.852-8.455,5.843-8.281S2325.984,389.775,2325.755,394.525Z" transform="translate(-2314.901 -385.612)"/>
        </g>
      </g>
      <g id="Group_279" data-name="Group 279" transform="translate(29.75)">
        <g id="Group_278" data-name="Group 278">
          <path id="Path_555" data-name="Path 555" d="M2265.39,392.85c-.232,4.753-2.847,8.456-5.839,8.283s-5.227-4.162-5-8.906,2.849-8.456,5.839-8.282S2265.623,388.106,2265.39,392.85Z" transform="translate(-2254.539 -383.939)"/>
        </g>
      </g>
    </g>
  </g>
  <g id="Group_287" data-name="Group 287" transform="translate(170.108 235.176)">
    <g id="Group_282" data-name="Group 282">
      <path id="Path_556" data-name="Path 556" d="M2297.4,491.5l-24.718-3.606,2.574,18.025,23.174-7.213Z" transform="translate(-2272.681 -487.889)" fill="#5e9a9e"/>
    </g>
    <g id="Group_283" data-name="Group 283" transform="translate(36.046)">
      <path id="Path_557" data-name="Path 557" d="M2321.065,491.5l24.715-3.606-2.574,18.025-23.175-7.213Z" transform="translate(-2320.031 -487.889)" fill="#5e9a9e"/>
    </g>
    <g id="Group_284" data-name="Group 284" transform="translate(13.901 10.812)">
      <path id="Path_558" data-name="Path 558" d="M2302.789,502.092l-11.847,23.174,10.3,1.547,7.723-22.661Z" transform="translate(-2290.941 -502.092)" fill="#5e9a9e"/>
    </g>
    <g id="Group_285" data-name="Group 285" transform="translate(29.87 10.812)">
      <path id="Path_559" data-name="Path 559" d="M2318.094,502.092l11.847,23.174-10.3,1.547-7.723-22.661Z" transform="translate(-2311.919 -502.092)" fill="#5e9a9e"/>
    </g>
    <g id="Group_286" data-name="Group 286" transform="translate(26.776 2.059)">
      <path id="Path_560" data-name="Path 560" d="M2316.094,494.715a4.12,4.12,0,1,1-4.118-4.121A4.116,4.116,0,0,1,2316.094,494.715Z" transform="translate(-2307.854 -490.594)" fill="#5e9a9e"/>
    </g>
  </g>
  <g id="Group_288" data-name="Group 288" transform="translate(63.158 257.568)">
    <path id="Path_561" data-name="Path 561" d="M2135.919,522.715l-3.511,114.762,177.26-3.278-11.41-117.222Z" transform="translate(-2132.407 -516.976)"/>
  </g>
  <g id="Group_289" data-name="Group 289" transform="translate(129.241 364.552)">
    <rect id="Rectangle_126" data-name="Rectangle 126" width="45.19" height="38.238"/>
  </g>
  <g id="Group_292" data-name="Group 292" transform="translate(261.555 206.929)">
    <g id="Group_290" data-name="Group 290" transform="translate(28.853 96.814)">
      <path id="Path_562" data-name="Path 562" d="M2430.3,604.894l7.722,22.4,3.866-.773-4.638-20.083,10.814-14.675-6.95,14.675,3.861,20.083c3.861.773,1.544-20.854,1.544-20.854l5.405-12.36-2.314,31.67,4.632,1.544,3.865-33.214,2.317,17-3.09,15.445,7.726-17.766,3.088-21.63-20.083-8.492Z" transform="translate(-2430.299 -577.862)" fill="#f9d5ba"/>
    </g>
    <g id="Group_291" data-name="Group 291">
      <path id="Path_563" data-name="Path 563" d="M2394.21,450.684s72.612,40.765,64.886,105.306l-20.083-7.472s7.721-47.557-39.393-73.374C2399.62,475.144,2388.032,465.633,2394.21,450.684Z" transform="translate(-2392.396 -450.684)" fill="#f9d5ba"/>
    </g>
  </g>
</svg>
