<svg id="Group_219" data-name="Group 219" xmlns="http://www.w3.org/2000/svg" width="260" height="156.577" viewBox="0 0 260 156.577">
  <path id="Path_464" data-name="Path 464" d="M852.546,1202.006a55.478,55.478,0,1,0-99.825,0Z" transform="translate(-616.411 -1045.429)" fill="#cdd5d7"/>
  <path id="Path_465" data-name="Path 465" d="M816.453,1155a21.982,21.982,0,1,1-21.982-21.979A21.978,21.978,0,0,1,816.453,1155Z" transform="translate(-556.453 -1020.408)" fill="#cdd5d7"/>
  <path id="Path_466" data-name="Path 466" d="M794.255,1163.536a42.993,42.993,0,1,1-43-42.992A42.991,42.991,0,0,1,794.255,1163.536Z" transform="translate(-708.268 -1049.947)" fill="#cdd5d7"/>
  <path id="Path_467" data-name="Path 467" d="M846.839,1165.1a48.017,48.017,0,1,1-48.005-48.012A48.015,48.015,0,0,1,846.839,1165.1Z" transform="translate(-607.774 -1058.127)" fill="#cdd5d7"/>
  <path id="Path_468" data-name="Path 468" d="M798.834,1117.088a48.007,48.007,0,0,0-44.1,67.021,47.984,47.984,0,0,0,75.883-54.921A47.756,47.756,0,0,0,798.834,1117.088Z" transform="translate(-607.774 -1058.127)" fill="#e5e8ec"/>
  <path id="Path_469" data-name="Path 469" d="M875.828,1202.006a55.378,55.378,0,0,0-49.911-79.553c-30.645,0-74.934,24.844-74.934,55.469,0,8.639-33.295,16.794-29.763,24.083Z" transform="translate(-678.312 -1045.429)" fill="#cdd5d7"/>
  <path id="Path_470" data-name="Path 470" d="M860.453,1170a70.44,70.44,0,1,1-70.432-70.428A70.433,70.433,0,0,1,860.453,1170Z" transform="translate(-681.513 -1099.576)" fill="#cdd5d7"/>
  <path id="Path_471" data-name="Path 471" d="M796.787,1215.845a70.442,70.442,0,0,0,63.277-101.374A70.424,70.424,0,0,0,746.327,1170c0,.165.013.313.013.475a42.892,42.892,0,0,0-33.78,61.324,32.964,32.964,0,0,0,46.177-27.127A70.148,70.148,0,0,0,796.787,1215.845Z" transform="translate(-708.268 -1099.576)" fill="#e5e8ec"/>
</svg>
